<svg xmlns="http://www.w3.org/2000/svg" viewBox="0 0 419.07 419.07"><defs><style>.cls-1{fill:#fff;}</style></defs><title>Gold Boutique</title><g id="Layer_2" data-name="Layer 2"><g id="Layer_1-2" data-name="Layer 1"><path class="cls-1" d="M32.88,7.27,26,10.78c-1.66-2.1-4.25-3.27-8.05-3.27-5.8,0-9.86,4-9.86,9.56a9.78,9.78,0,0,0,10,9.81,11.77,11.77,0,0,0,8.15-2.78V20.88H16.05V14.73H33.22V27A19,19,0,0,1,18,34.35c-11,0-18-8.25-18-17.17C0,8,7.56,0,18,0A18.24,18.24,0,0,1,32.88,7.27Z"></path><path class="cls-1" d="M71.63,17.17A17.12,17.12,0,1,1,54.5,0,17.19,17.19,0,0,1,71.63,17.17Zm-26.93,0A9.76,9.76,0,1,0,54.5,7.46,9.77,9.77,0,0,0,44.7,17.17Z"></path><path class="cls-1" d="M85.15,26.35h17.42v7.42H77.15V.59h8Z"></path><path class="cls-1" d="M140.73,17.12c0,9.66-7.17,16.64-17.52,16.64H108.53V.63l14.68,0C134.14.54,140.73,7.56,140.73,17.12Zm-24.2,9.22h6.68c5.56,0,9.42-3.66,9.42-9.22,0-6-3.76-9.12-9.42-9.12h-6.68Z"></path><path class="cls-1" d="M187.28,24.1c0,5.42-3.46,9.66-12.54,9.66H158.39V.59h14.39c9.61,0,12.64,3.81,12.64,9.12a8.55,8.55,0,0,1-3.12,6.34A8.64,8.64,0,0,1,187.28,24.1Zm-9.46-13.37c0-2.24-1.47-3.32-4.54-3.32H166.4v6.93h6.88C176.74,14.34,177.81,13.32,177.81,10.73Zm-4,9.71H166.4v6.44h7.42q4.83,0,4.83-3.22C178.64,21.22,177,20.44,173.81,20.44Z"></path><path class="cls-1" d="M225.24,17.17A17.13,17.13,0,1,1,208.12,0,17.19,17.19,0,0,1,225.24,17.17Zm-26.93,0a9.76,9.76,0,1,0,9.81-9.71A9.77,9.77,0,0,0,198.31,17.17Z"></path><path class="cls-1" d="M261.11,16.73c0,11-6.93,17.61-16.2,17.61S229.1,27.71,229.1,16.73V.59h8V16.73c0,6.39,2.73,10.2,7.81,10.2s8.1-3.81,8.1-10.2V.59h8.1Z"></path><path class="cls-1" d="M296.78,8H285V33.76h-8.1V8H265.17V.59h31.62Z"></path><path class="cls-1" d="M310.5,33.76h-8V.59h8Z"></path><path class="cls-1" d="M347.29,28.1l2.29,2.68L344.16,36l-2.93-3.27a17.15,17.15,0,0,1-7.32,1.66A17.37,17.37,0,0,1,316.5,17.08a17.45,17.45,0,0,1,34.89,0A16.82,16.82,0,0,1,347.29,28.1Zm-5.32-6a9.89,9.89,0,0,0,1.37-5.07,9.42,9.42,0,1,0-18.83,0,9.65,9.65,0,0,0,9.42,9.86,9,9,0,0,0,2-.24m0,0-4.64-5.22,5.61-5.22,5.07,5.9"></path><path class="cls-1" d="M387.64,16.73c0,11-6.93,17.61-16.2,17.61s-15.81-6.64-15.81-17.61V.59h8V16.73c0,6.39,2.73,10.2,7.81,10.2s8.1-3.81,8.1-10.2V.59h8.1Z"></path><path class="cls-1" d="M419.07.59V8H401.65v5.71h14.54v6.93H401.65v5.71h17.42v7.42H393.65V.59Z"></path></g></g></svg>