<svg
  xmlns="http://www.w3.org/2000/svg"
  viewBox="0 0 278.96 54.21"
  >
  <defs>
    <style>
      .cls-1{fill:#fff}
    </style>
  </defs>
  <g id="Layer_2" data-name="Layer 2">
    <g id="Layer_1-2" data-name="Layer 1">
      <path class="cls-1" d="M102.9 27.29a9.53 9.53 0 0 1-7 2.66c-2.46 0-3.7-.4-3.7-3.21V16.5c0-.05 0-.11.19-.21a1.2 1.2 0 0 1 .84-.27h1.66a14.67 14.67 0 0 1 6.82 1.57.21.21 0 0 0 .15.07c.05 0 .1-.05.1-.2-.15-1.4-.25-3.05-.3-3.7 0-.15-.05-.14-.15 0a13.67 13.67 0 0 1-4.87.72h-3.45a1.21 1.21 0 0 1-.84-.22.27.27 0 0 1-.19-.27V3.66c0-1.4 0-1.46 3.8-1.46a8.67 8.67 0 0 1 4.91 1.45 7.76 7.76 0 0 1 1.65 1.44c0 .15.25.13.2-.07 0-1.16-.25-3.71-.25-4.52 0-.15-.1-.29-.25-.24-.8.15-3.76 0-5.62 0h-9.33c-.15 0 0 .25.07.4A7.6 7.6 0 0 1 89 5.52V29.1c0 1.95-.62 2.41-.77 2.46s-.32.22-.16.22h13.84c.65 0 .7-.37.75-.62l.45-3.82c.01-.2-.06-.2-.21-.05zM152.53.26h-3.11c-.2 0-.3.3-.3.5a11 11 0 0 1-.7 3.55l-8.13 21.16L130.56.63c-.25-.65-.5-.58-.7 0l-8.48 24.18-7.72-20.74C112.3.81 113.36.26 112.4.26h-5.06c-.25 0-.36.35 0 .55s1.65 1.55 3.66 6l9.63 24.88c.25.5.4.5.55 0L129.66 7l9.58 24.62c.25.55.55.58.75 0l9.58-25c1.86-4.41 2.71-5.36 3.17-5.81a.28.28 0 0 0-.21-.55zM170.83 27.29a9.69 9.69 0 0 1-7.11 2.71c-2.46 0-3.83-.4-3.83-3.21V16.5c0-.05.17-.11.32-.21a1.6 1.6 0 0 1 1-.27h1.66a14.67 14.67 0 0 1 6.82 1.57.21.21 0 0 0 .15.07c.05 0 .1-.05.1-.2-.15-1.4-.25-3.05-.3-3.7 0-.15-.05-.14-.15 0a13.72 13.72 0 0 1-4.87.72h-3.41a1.63 1.63 0 0 1-1-.22c-.15-.05-.32-.17-.32-.27V3.66c0-1.4.17-1.46 3.93-1.46a9.08 9.08 0 0 1 5 1.45 7.58 7.58 0 0 1 1.66 1.44c.05.15.25.13.2-.07 0-1.16-.25-3.71-.25-4.52 0-.15-.1-.29-.25-.24-.8.15-3.76 0-5.62 0h-9.33c-.15 0-.11.25-.06.4a7.7 7.7 0 0 1 1.54 4.86V29.1c0 1.95-.49 2.41-.64 2.46s-.19.22 0 .22h13.85c.65 0 .7-.37.75-.62l.45-3.82c-.01-.2-.12-.2-.29-.05zM193.26 26.94c-1.81 1.85-4.38 3.16-8.59 3.16-3.06 0-3.49-.1-3.49-2.36V7c0-2.41.12-5.61.68-6.31.15-.15 0-.4-.18-.4h-5.42c-.15 0 0 .25.13.4A7.93 7.93 0 0 1 178 5.52v22.37a7.6 7.6 0 0 1-.78 3.67c-.15.05-.34.22-.19.22h15.5c.36 0 .37-.22.42-.37l.51-4.42c.03-.2-.05-.2-.2-.05zM215.09 26.94c-1.8 1.85-4.48 3.16-8.69 3.16-3.06 0-3.69-.1-3.69-2.36V7c0-2.41.33-5.61.88-6.31.15-.15.18-.4 0-.4h-5.39c-.15 0-.22.25-.07.4a8.13 8.13 0 0 1 1.43 4.86v22.34a9 9 0 0 1-.58 3.67c-.15.05-.12.22 0 .22h15.5c.35 0 .33-.22.38-.37l.49-4.42c.03-.2-.11-.2-.26-.05zM235.59 27.29a9.68 9.68 0 0 1-7.1 2.66c-2.46 0-3.83-.4-3.83-3.21V16.5c0-.05.16-.11.31-.21a1.64 1.64 0 0 1 1-.27h1.65a14.67 14.67 0 0 1 6.82 1.57.21.21 0 0 0 .15.07c.05 0 .1-.05.1-.2-.15-1.4-.25-3.05-.3-3.7 0-.15-.05-.14-.15 0a13.65 13.65 0 0 1-4.86.72H226a1.67 1.67 0 0 1-1-.22c-.15-.05-.31-.17-.31-.27V3.66c0-1.4.16-1.46 3.93-1.46a9.11 9.11 0 0 1 5 1.45 8.08 8.08 0 0 1 1.66 1.44c.05.15.25.13.2-.07 0-1.16-.25-3.71-.25-4.52 0-.15-.1-.29-.25-.24-.81.15-3.77 0-5.62 0H220c-.15 0-.12.25-.07.4a7.7 7.7 0 0 1 1.54 4.86V29.1c0 1.95-.48 2.41-.63 2.46s-.19.22 0 .22h13.84c.66 0 .71-.37.76-.62l.45-3.82c-.01-.2-.15-.2-.3-.05zM266.82 6.78c0-2.66 1.55-5.11 4.91-5.11A7.83 7.83 0 0 1 278 4.78c.15.2.2.35.4.35s.2-.15.25-.45.36-2 .36-3C279 1 275.59.31 272.43.31c-6.62 0-8.17 4.11-8.17 7.32 0 9.49 11.64 9.94 11.64 17.21a5 5 0 0 1-5.37 5.27h-.7l1.43 1.81c4.7-.21 7.6-3.3 7.6-7.75 0-10.06-12.04-10.11-12.04-17.39zM81.25.26h-4.61c-.15 0-.39.25-.34.4.34.63.57 1.46.67 4v21.42c0 6.28-1.87 10.46-4.43 12.47-.2.2-.12.27-.12.32s0 0 .15 0h.25c2.61-.79 8.18-5.66 8.18-14.64V6.92c0-4.86.25-5.71.5-6.31.01-.1-.15-.35-.25-.35zM255 16.53c1.7-1.3 4.44-4.94 4.44-8.65a7.62 7.62 0 0 0-.4-2.71C257.72 1.51 255 .26 250.15.26h-9.27c-.15 0-.11.25-.06.4a7.7 7.7 0 0 1 1.54 4.86V29.1c0 1.95-.49 2.41-.64 2.46s-.18.22 0 .22H247s-.07-.07-.07-.12-1.22-1.21-1.22-9.09v-4.76c0-.2.27-.33.47-.33 1 0 2.62.12 3.83.12h1.3c.81 0 1.36.08 1.61.48 1.55 2.33 7 9.73 9.24 12.76.29.39-.21.77-.27.79s-.12.21 0 .21h4.52S255.39 16.79 255 16.53zm-2-1.33a65.7 65.7 0 0 1-7.3-.2V2.56a15.89 15.89 0 0 1 3.78-.35c3.66 0 5.68 1.25 6.69 4.46a9.19 9.19 0 0 1 .31 2.46c0 2.87-1.29 5.52-3.48 6.07zM47.25 37.72a25 25 0 0 1-12.49-3.26c-3.61-2-6.87-4.31-10.28-4.31A15.58 15.58 0 0 0 32.6 16c0-9-6.16-16-16.35-16C6.22 0 0 7 0 16c0 8.73 6.22 16.11 16.26 16.11a18.19 18.19 0 0 0 4.46-.51 13.34 13.34 0 0 1 2.42-.25c5.27 0 10.55 8.68 20.08 8.68a17.7 17.7 0 0 0 7.9-1.7l-.66-.83a20.14 20.14 0 0 1-3.21.22zM20 30c-7 2-13.64-3.16-15.65-10.74C2.16 11.39 5.42 4 12.49 2.16c7.32-2 13.64 2.76 15.8 10.68C30.3 20.42 27.19 28.14 20 30z"/>
      <path class="cls-1" d="M45.59.28h-9.83V.5a.89.89 0 0 0 .14.32c.4.7 1.39 2.21 1.39 8.18v18.39c0 3.46-.89 4.12-.89 4.27s-.13.12-.08.12h5c.05 0 .14-.07.14-.12a.31.31 0 0 0-.06-.16c-.56-.45-.93-1.75-.93-5.52V4.36c0-2.35.88-2.3 3.84-2.3 4.56 0 7 4 7 8.27C51.36 14.1 49 17 44.94 18a10.71 10.71 0 0 0-1.21.26l.73.92a14.06 14.06 0 0 0 2.14-.36c4.56-1.05 7.82-4.61 7.82-9.27C54.42 4 51.36.28 45.59.28zM278.42 50.38h-97.61v.49h98.15v-.03l-.54-.46zM97.62 50.38H0v.49h98.15v-.03l-.53-.46zM108.92 46.66h3.85v.77h-3v2.2h2.93v.77h-2.93v2.91h3v.77h-3.85zM120.39 48.11a1.82 1.82 0 0 0-.52-.6 1.25 1.25 0 0 0-.76-.21 1.5 1.5 0 0 0-.47.08 1.58 1.58 0 0 0-.39.24 1.22 1.22 0 0 0-.25.38 1.07 1.07 0 0 0-.1.47.82.82 0 0 0 .11.42 1.26 1.26 0 0 0 .29.32 2 2 0 0 0 .37.24l.39.18.49.22a6.33 6.33 0 0 1 .69.34 2.65 2.65 0 0 1 .56.42 1.67 1.67 0 0 1 .39.56 1.78 1.78 0 0 1 .14.76 2.27 2.27 0 0 1-.18.91 2.31 2.31 0 0 1-.5.73 2.48 2.48 0 0 1-.74.48 2.31 2.31 0 0 1-.91.18 2.43 2.43 0 0 1-.82-.14 2.15 2.15 0 0 1-1.19-1 2.44 2.44 0 0 1-.3-.78l.81-.23a1.48 1.48 0 0 0 .17.54 1.51 1.51 0 0 0 .33.38 1.23 1.23 0 0 0 .44.3 1.46 1.46 0 0 0 .55.11 1.56 1.56 0 0 0 .57-.11 1.44 1.44 0 0 0 .44-.3 1.41 1.41 0 0 0 .34-.46 1.24 1.24 0 0 0 .13-.58 1.18 1.18 0 0 0-.12-.55 1.3 1.3 0 0 0-.31-.39 2 2 0 0 0-.44-.29l-.5-.24-.45-.2-.62-.31a2.62 2.62 0 0 1-.52-.39 1.71 1.71 0 0 1-.35-.51 2 2 0 0 1 0-1.47 1.88 1.88 0 0 1 1.12-1 2.35 2.35 0 0 1 .79-.14 2.13 2.13 0 0 1 1.12.3 2.19 2.19 0 0 1 .8.85zM127.34 54.08h-.82v-6.65h-1.79v-.77h4.42v.77h-1.81zM139.54 47.43l.43-.77h1.63v7.42h-.83v-6.65zM148.69 53.78l1.71-2.35-.31.08h-.33a2.34 2.34 0 0 1-1-.19 2.37 2.37 0 0 1-.76-.53 2.45 2.45 0 0 1-.51-.78 2.51 2.51 0 0 1-.18-.95 2.54 2.54 0 0 1 .2-1 2.78 2.78 0 0 1 .55-.8 2.66 2.66 0 0 1 .82-.54 2.55 2.55 0 0 1 2 0 2.5 2.5 0 0 1 .81.54 2.63 2.63 0 0 1 .56.8 2.54 2.54 0 0 1 .2 1 2.26 2.26 0 0 1-.2.94 5.93 5.93 0 0 1-.49.84l-2.46 3.37zm1.21-6.48a1.74 1.74 0 0 0-1.6 1.06 1.82 1.82 0 0 0 0 1.35 1.79 1.79 0 0 0 .37.54 1.87 1.87 0 0 0 .55.36 1.72 1.72 0 0 0 .68.13 1.67 1.67 0 0 0 .67-.13 1.87 1.87 0 0 0 .55-.36 1.79 1.79 0 0 0 .37-.54 1.7 1.7 0 0 0 0-1.35 1.73 1.73 0 0 0-.92-.92 1.67 1.67 0 0 0-.67-.14zM158.84 46.53a2.17 2.17 0 0 1 .81.16 2.28 2.28 0 0 1 .66.43 1.87 1.87 0 0 1 .44.66 2 2 0 0 1 .17.82 1.9 1.9 0 0 1-.24.93 1.65 1.65 0 0 1-.67.69 1.68 1.68 0 0 1 .81.72 2.08 2.08 0 0 1 .28 1.06 2.17 2.17 0 0 1-.17.89 2 2 0 0 1-.48.7 2.26 2.26 0 0 1-.71.45 2.44 2.44 0 0 1-.9.17A2.35 2.35 0 0 1 158 54a2.2 2.2 0 0 1-.72-.45 2 2 0 0 1-.48-.7 2.35 2.35 0 0 1-.17-.89 2.08 2.08 0 0 1 .28-1.06 1.78 1.78 0 0 1 .81-.72 1.65 1.65 0 0 1-.67-.69 1.9 1.9 0 0 1-.24-.93 2.14 2.14 0 0 1 .61-1.48 2.28 2.28 0 0 1 .66-.43 2.17 2.17 0 0 1 .76-.12zm0 4.06a1.38 1.38 0 0 0-.57.11 1.54 1.54 0 0 0-.45.3 1.31 1.31 0 0 0-.3.46 1.26 1.26 0 0 0-.12.55 1.34 1.34 0 0 0 .12.56 1.38 1.38 0 0 0 .75.75 1.41 1.41 0 0 0 1.14 0 1.38 1.38 0 0 0 .75-.75 1.34 1.34 0 0 0 .12-.56 1.26 1.26 0 0 0-.12-.55 1.31 1.31 0 0 0-.3-.46 1.54 1.54 0 0 0-.45-.3 1.38 1.38 0 0 0-.57-.11zm0-3.29a1.21 1.21 0 0 0-.5.1 1.27 1.27 0 0 0-.41.27 1.39 1.39 0 0 0-.27.41 1.19 1.19 0 0 0 0 1 1.17 1.17 0 0 0 .27.41 1.15 1.15 0 0 0 .41.28 1.19 1.19 0 0 0 1 0 1.07 1.07 0 0 0 .41-.28 1.35 1.35 0 0 0 .28-.41 1.3 1.3 0 0 0 0-1 1.65 1.65 0 0 0-.28-.41 1.17 1.17 0 0 0-.41-.27 1.21 1.21 0 0 0-.5-.1zM167.5 47.43L167 49h.45a2.51 2.51 0 0 1 1 .2 2.43 2.43 0 0 1 .78.56 2.51 2.51 0 0 1 .5.82 2.78 2.78 0 0 1 0 2.07 2.77 2.77 0 0 1-.59.84 2.64 2.64 0 0 1-.86.55 2.91 2.91 0 0 1-1.07.2 2.55 2.55 0 0 1-1.32-.35 2.88 2.88 0 0 1-.95-1l.66-.47a2.29 2.29 0 0 0 .68.74 1.72 1.72 0 0 0 1 .29 2 2 0 0 0 .75-.14 1.78 1.78 0 0 0 1-1 2 2 0 0 0 .14-.75 1.89 1.89 0 0 0-.14-.72 1.78 1.78 0 0 0-.4-.57 1.71 1.71 0 0 0-.59-.38 1.88 1.88 0 0 0-.72-.13 2.1 2.1 0 0 0-.74.13 3.52 3.52 0 0 0-.67.34l1.08-3.55h3v.77z"/>
    </g>
  </g>
</svg>
